<svg xmlns="http://www.w3.org/2000/svg" class="icon" viewBox="0 0 64 64">
  <path d="M7.93653914,54.8016523 L21.8971305,54.8016523 C20.5723826,53.6552349 19.4260174,52.2541044 18.585287,50.700094 L8.16579132,50.700094 C5.5418087,50.700094 4.14067827,49.3498853 4.14067827,46.8023332 L4.14067827,8.23236523 C4.14067827,5.73573914 5.51634784,4.28363479 8.16579132,4.28363479 L34.7877392,4.28363479 C37.335287,4.28363479 38.7874435,5.71027827 38.7874435,8.23236523 L38.7874435,30.472487 C40.3414435,31.3132174 41.742574,32.4341218 42.8889914,33.7843305 L42.8889914,8.18139132 C42.8889914,2.83153044 40.2650088,0.182086957 34.9915827,0.182086957 L7.93653914,0.182086957 C2.68857392,0.182086957 0.0391304348,2.85704348 0.0391304348,8.18139132 L0.0391304348,46.8023332 C0.0391304348,52.1522088 2.68857392,54.8016523 7.93653914,54.8016523 Z M11.8342957,14.6776696 L31.1447479,14.6776696 C32.0364001,14.6776696 32.7242609,13.9643478 32.7242609,13.0726957 C32.7242609,12.2065565 32.0364001,11.5441565 31.1447479,11.5441565 L11.8342957,11.5441565 C10.8917218,11.5441565 10.2293218,12.2065565 10.2293218,13.0726957 C10.2293218,13.9643478 10.8917218,14.6776696 11.8342957,14.6776696 Z M11.8342957,23.5431653 L31.1447479,23.5431653 C32.0364001,23.5431653 32.7242609,22.8553044 32.7242609,21.9637044 C32.7242609,21.0975131 32.0364001,20.4096522 31.1447479,20.4096522 L11.8342957,20.4096522 C10.8917218,20.4096522 10.2293218,21.0975131 10.2293218,21.9637044 C10.2293218,22.8553044 10.8917218,23.5431653 11.8342957,23.5431653 Z M31.4504348,54.8016523 C33.7432696,54.8016523 35.9086957,54.1137914 37.6919479,52.9419653 L43.4239827,58.6739479 C44.0353566,59.285374 44.5958609,59.5146262 45.2836696,59.5146262 C46.4555479,59.5146262 47.3472001,58.5975131 47.3472001,57.2982784 C47.3472001,56.737774 47.0670262,56.1773218 46.6339827,55.7442262 L40.8254609,49.9103479 C42.1246957,48.0506349 42.8889914,45.8087896 42.8889914,43.3631375 C42.8889914,36.9942261 37.7683827,31.8736696 31.4504348,31.8736696 C25.1325392,31.8736696 19.9610087,37.0452001 19.9610087,43.3631375 C19.9610087,49.6810696 25.1325392,54.8016523 31.4504348,54.8016523 Z M31.4504348,51.1586505 C27.1196348,51.1586505 23.604,47.6430262 23.604,43.3631375 C23.604,39.0832175 27.1196348,35.5421218 31.4504348,35.5421218 C35.7048522,35.5421218 39.220487,39.0832175 39.220487,43.3631375 C39.220487,47.6430262 35.7303653,51.1586505 31.4504348,51.1586505 Z" transform="translate(8.26 2)"/>
</svg>
